<svg width="101" height="101" xmlns="http://www.w3.org/2000/svg" xmlns:xlink="http://www.w3.org/1999/xlink" xml:space="preserve" overflow="hidden"><g transform="translate(-868 -237)"><g><g><g><g><path d="M950.898 271.949C950.386 263.66 946.667 255.898 940.531 250.308 934.39 244.718 926.316 241.738 918.015 241.999 909.57 242.472 901.632 246.183 895.851 252.362 890.074 258.542 886.906 266.714 886.999 275.171L886.999 309.999C886.999 320.167 876.276 331.069 876.167 331.175 875.609 331.738 875.23 332.449 875.078 333.222 874.921 334 875.003 334.804 875.304 335.535 875.609 336.265 876.121 336.886 876.781 337.328 877.437 337.765 878.21 338 879 338L923 338C930.421 337.992 937.539 335.039 942.789 329.789 948.039 324.539 950.992 317.426 950.999 310L950.999 287 962.999 278ZM927 286C924.625 286 922.309 285.297 920.332 283.977 918.359 282.66 916.82 280.785 915.914 278.594 915.004 276.398 914.77 273.988 915.23 271.66 915.695 269.332 916.836 267.195 918.516 265.516 920.191 263.836 922.332 262.695 924.66 262.23 926.988 261.77 929.398 262.004 931.594 262.914 933.785 263.82 935.66 265.359 936.977 267.332 938.297 269.309 939 271.629 939 274 939 277.184 937.734 280.234 935.484 282.484 933.234 284.734 930.184 286 927 286Z" fill="#1F1F1F" fill-rule="nonzero" fill-opacity="1"/></g></g></g></g></g></svg>